<?xml version="1.0" encoding="UTF-8"?>
<svg id="Layer_1" xmlns="http://www.w3.org/2000/svg" width="1920" height="1080" xmlns:xlink="http://www.w3.org/1999/xlink" version="1.1" viewBox="0 0 192 108">
  <!-- Generator: Adobe Illustrator 30.1.0, SVG Export Plug-In . SVG Version: 2.1.1 Build 136)  -->
  <defs>
    <pattern id="New_Pattern_3" data-name="New Pattern 3" x="0" y="0" width="10" height="10" patternTransform="translate(-7920 -4560)" patternUnits="userSpaceOnUse" viewBox="0 0 10 10">
      <g>
        <rect width="10" height="10" fill="none"/>
        <path d="M10,20h4.4l.6-.6.6.6h4.4s0-10,0-10h-4.4l-.6.6-.6-.6h-4.4s0,10,0,10Z" fill="none" stroke="#828282" stroke-miterlimit="10" stroke-width=".1"/>
        <path d="M0,20h4.4l.6-.6.6.6h4.4s0-10,0-10h-4.4l-.6.6-.6-.6H0s0,10,0,10Z" fill="none" stroke="#828282" stroke-miterlimit="10" stroke-width=".1"/>
        <path d="M-10,20h4.4l.6-.6.6.6H0S0,10,0,10h-4.4l-.6.6-.6-.6h-4.4s0,10,0,10Z" fill="none" stroke="#828282" stroke-miterlimit="10" stroke-width=".1"/>
        <path d="M10,10h4.4l.6-.6.6.6h4.4S20,0,20,0h-4.4l-.6.6L14.4,0h-4.4s0,10,0,10Z" fill="none" stroke="#828282" stroke-miterlimit="10" stroke-width=".1"/>
        <g>
          <line x1="10" y1="7.5" x2="5" y2="7.5" fill="none" stroke="#828282" stroke-miterlimit="10" stroke-width=".1"/>
          <path d="M0,10h4.4l.6-.6.6.6h4.4S10,0,10,0h-4.4l-.6.6L4.4,0H0s0,10,0,10Z" fill="none" stroke="#828282" stroke-miterlimit="10" stroke-width=".1"/>
          <line x1="5" y1=".6" x2="5" y2="9.4" fill="none" stroke="#828282" stroke-miterlimit="10" stroke-width=".1"/>
          <line x1="0" y1="2.5" x2="5" y2="2.5" fill="none" stroke="#828282" stroke-miterlimit="10" stroke-width=".1"/>
        </g>
        <path d="M-10,10h4.4l.6-.6.6.6H0S0,0,0,0h-4.4l-.6.6L-5.6,0h-4.4s0,10,0,10Z" fill="none" stroke="#828282" stroke-miterlimit="10" stroke-width=".1"/>
        <path d="M10,0h4.4l.6-.6L15.6,0h4.4s0-10,0-10h-4.4l-.6.6-.6-.6h-4.4s0,10,0,10Z" fill="none" stroke="#828282" stroke-miterlimit="10" stroke-width=".1"/>
        <path d="M0,0h4.4l.6-.6L5.6,0h4.4s0-10,0-10h-4.4l-.6.6-.6-.6H0S0,0,0,0Z" fill="none" stroke="#828282" stroke-miterlimit="10" stroke-width=".1"/>
        <path d="M-10,0h4.4l.6-.6L-4.4,0H0S0-10,0-10h-4.4l-.6.6-.6-.6h-4.4s0,10,0,10Z" fill="none" stroke="#828282" stroke-miterlimit="10" stroke-width=".1"/>
      </g>
    </pattern>
  </defs>
  <rect width="192" height="108" fill="url(#New_Pattern_3)"/>
</svg>