<?xml version="1.0" encoding="UTF-8"?>
<svg id="Layer_1" xmlns="http://www.w3.org/2000/svg" version="1.1" viewBox="0 0 898.35 201.72">
  
  <defs>
    
  </defs>
  <g>
    <path class="st0" d="M365.65,186c0,5.3-3.41,9.79-7.58,12.43v1.58h34.91v-1.58c-4.17-2.64-7.58-7.13-7.58-12.43V14.4c0-5.3,3.41-10.23,7.58-12.87V.01h-34.91v1.52c4.17,2.64,7.58,7.57,7.58,12.87v171.32"></path>
    <path class="st0" d="M216.62,200.01c57.54,0,105.21-36.95,105.21-98.72S282.34.01,213.8.01h-41.98s-21.84,0-21.84,0v1.58c3.15,1.99,5.72,5.71,5.72,9.71v177.42c0,4-2.57,7.72-5.72,9.71v1.46l66.64.12ZM220.57,190.14c-12.13,0-32.16,0-45.13-5.36V9.88h34.41c58.1,0,90.54,42.9,90.54,97.9,0,47.1-34.13,82.36-79.82,82.36Z"></path>
    <path class="st0" d="M566.15,0v1.57c4,1.99,5.14,5.29,3.72,9l-57.42,151.03h-1.2L451.14,10.57c-1.43-4.28-.3-6.71,3.72-9V0h-33.15v1.57c2.85.85,5.43,3.86,7.43,9l71.97,176.46c1.48,5.17,1.11,8.82-3.69,11.4v1.57h23.78v-1.57c-4.06-2.21-5.9-5.11-3.69-11.4L585.9,10.57c1.43-4,4.28-8.15,7.43-9V0h-27.18Z"></path>
    <path class="st0" d="M108.25,200.01H0v-1.58c3.15-1.99,5.72-5.71,5.72-9.71V10.86C5.72,6.87,3.15,3.15,0,1.16V.01h111.15s2.32,15.3,2.32,15.3h-1.71c-1.71-3.72-5.43-5.43-9.72-5.43H25.47v42.31h63.68c4,0,7.72-2.28,9.71-5.14h1.14v21.85h-1.14c-1.99-2.57-5.71-5.14-9.71-5.14H25.47v126.38h82.78c4.28,0,8-1.72,9.71-5.43h1.43l-2.32,15.3h-8.82Z"></path>
  </g>
  <g>
    <path class="st0" d="M650.86,185.25h.36v8.11c-6.12,5.85-14.49,8.37-23.58,8.37-20.8,0-34.3-14.04-34.3-33.22s14.85-33.21,35.11-33.21c8.73,0,15.93,2.79,21.96,7.56v8.11h-.36c-5.49-8.47-12.96-11.97-23.41-11.97-17.02,0-26.47,13.23-26.47,27.45,0,17.56,12.78,31.6,29.17,31.6,8.91,0,17.83-4.59,21.52-12.78Z"></path>
    <path class="st0" d="M670.73,140.95v53.94c4.14,1.71,12.69,1.71,16.56,1.71,8.46,0,17.02-.63,22.78-5.59l.36.36-8.82,8.64h-40.87v-.36c2.25,0,3.69-1.44,3.69-4.14v-54.56c0-2.33-1.17-3.59-3.69-3.59v-.36h13.69v.36c-2.52,0-3.69,1.26-3.69,3.59Z"></path>
    <path class="st0" d="M730.76,199.56v.45h-14.77v-.45c2.88,0,4.23-1.35,4.23-4.14v-53.84c0-2.79-1.35-4.14-4.23-4.14v-.45h14.77v.45c-2.88,0-4.23,1.35-4.23,4.14v53.84c0,2.79,1.35,4.14,4.23,4.14Z"></path>
    <path class="st0" d="M738.77,137.35v-.36h9.72l48.97,51.49v-46.9c0-2.79-1.35-4.14-4.23-4.14v-.45h12.87v.45c-2.88,0-4.23,1.35-4.23,4.14v59.24h-1.08l-49.24-51.49v46.09c0,2.79,1.35,4.14,4.23,4.14v.45h-12.88v-.45c2.88,0,4.23-1.35,4.23-4.14v-50.78l-3.96-4.14c-1.62-1.71-2.7-3.14-4.41-3.14Z"></path>
    <path class="st0" d="M831.02,199.56v.45h-14.77v-.45c2.88,0,4.23-1.35,4.23-4.14v-53.84c0-2.79-1.35-4.14-4.23-4.14v-.45h14.77v.45c-2.88,0-4.23,1.35-4.23,4.14v53.84c0,2.79,1.35,4.14,4.23,4.14Z"></path>
    <path class="st0" d="M898,185.25h.36v8.11c-6.12,5.85-14.49,8.37-23.58,8.37-20.8,0-34.3-14.04-34.3-33.22s14.85-33.21,35.11-33.21c8.73,0,15.93,2.79,21.96,7.56v8.11h-.36c-5.49-8.47-12.96-11.97-23.41-11.97-17.02,0-26.47,13.23-26.47,27.45,0,17.56,12.78,31.6,29.17,31.6,8.91,0,17.83-4.59,21.52-12.78Z"></path>
  </g>
</svg>